<svg id="bold" enable-background="new 0 0 24 24" height="512" viewBox="0 0 24 24" width="512" xmlns="http://www.w3.org/2000/svg"><path d="m12.25 2h-1.1c-.33-1.15-1.39-2-2.65-2s-2.32.85-2.65 2h-1.1c-.41 0-.75.34-.75.75v1.5c0 .96.79 1.75 1.75 1.75h5.5c.96 0 1.75-.79 1.75-1.75v-1.5c0-.41-.34-.75-.75-.75z"/><path d="m14.25 3h-.25v1.25c0 1.52-1.23 2.75-2.75 2.75h-5.5c-1.52 0-2.75-1.23-2.75-2.75v-1.25h-.25c-1.52 0-2.75 1.23-2.75 2.75v12.5c0 1.52 1.23 2.75 2.75 2.75h8.15c-.65-1.02-1.13-2.19-1.31-3.5h-5.84c-.41 0-.75-.34-.75-.75s.34-.75.75-.75h5.75v-1.75h-5.75c-.41 0-.75-.34-.75-.75s.34-.75.75-.75h5.75v-.46c0-.46.1-.9.29-1.29h-6.04c-.41 0-.75-.34-.75-.75s.34-.75.75-.75h7.67c.03-.02.07-.04.11-.05l5.25-1.79c.07-.03.14-.05.22-.06v-1.85c0-1.52-1.23-2.75-2.75-2.75z"/><path d="m23.322 11.339-5.25-1.786c-.209-.071-.436-.071-.645 0l-5.25 1.786c-.405.138-.678.519-.678.947v4.018c0 5.067 5.619 7.515 5.858 7.617.126.053.26.079.393.079s.267-.026.392-.08c.239-.102 5.858-2.549 5.858-7.616v-4.018c0-.429-.272-.809-.678-.947zm-2.022 3.761-3 4c-.174.232-.439.377-.729.397-.024.002-.048.003-.071.003-.265 0-.519-.104-.707-.293l-2-2c-.391-.391-.391-1.023 0-1.414s1.023-.391 1.414 0l1.185 1.185 2.308-3.078c.331-.441.958-.532 1.399-.2.443.331.533.958.201 1.4z"/></svg>